<mxfile host="app.diagrams.net" agent="Mozilla/5.0 (Windows NT 10.0; Win64; x64) AppleWebKit/537.36 (KHTML, like Gecko) Chrome/130.0.0.0 Safari/537.36" version="24.8.3">
  <diagram name="Страница — 1" id="ubaDaPjXMqu6s0MUEHaF">
    <mxGraphModel dx="1000" dy="373" grid="0" gridSize="10" guides="1" tooltips="1" connect="1" arrows="1" fold="1" page="0" pageScale="1" pageWidth="827" pageHeight="1169" math="0" shadow="0">
      <root>
        <mxCell id="0" />
        <mxCell id="1" parent="0" />
        <mxCell id="XFKtOcQJJ61TGkPVgmkJ-61" value="" style="shape=table;startSize=0;container=1;collapsible=0;childLayout=tableLayout;strokeColor=default;fontSize=16;fillColor=none;dashed=1;dashPattern=1 2;opacity=40;swimlaneLine=1;textOpacity=50;" parent="1" vertex="1">
          <mxGeometry x="-310" y="80" width="1080" height="633.7084248860677" as="geometry" />
        </mxCell>
        <mxCell id="XFKtOcQJJ61TGkPVgmkJ-62" value="" style="shape=tableRow;horizontal=0;startSize=0;swimlaneHead=0;swimlaneBody=0;strokeColor=inherit;top=0;left=0;bottom=0;right=0;collapsible=0;dropTarget=0;fillColor=none;points=[[0,0.5],[1,0.5]];portConstraint=eastwest;fontSize=16;" parent="XFKtOcQJJ61TGkPVgmkJ-61" vertex="1">
          <mxGeometry width="1080" height="56" as="geometry" />
        </mxCell>
        <mxCell id="XFKtOcQJJ61TGkPVgmkJ-63" value="" style="shape=partialRectangle;html=1;whiteSpace=wrap;connectable=0;strokeColor=inherit;overflow=hidden;fillColor=none;top=0;left=0;bottom=0;right=0;pointerEvents=1;fontSize=16;textOpacity=50;" parent="XFKtOcQJJ61TGkPVgmkJ-62" vertex="1">
          <mxGeometry width="184" height="56" as="geometry">
            <mxRectangle width="184" height="56" as="alternateBounds" />
          </mxGeometry>
        </mxCell>
        <mxCell id="XFKtOcQJJ61TGkPVgmkJ-64" value="&lt;p style=&quot;line-height: 120%;&quot;&gt;Cloud&lt;/p&gt;" style="shape=partialRectangle;html=1;whiteSpace=wrap;connectable=0;strokeColor=inherit;overflow=hidden;fillColor=none;top=0;left=0;bottom=0;right=0;pointerEvents=1;fontSize=16;textOpacity=50;" parent="XFKtOcQJJ61TGkPVgmkJ-62" vertex="1">
          <mxGeometry x="184" width="156" height="56" as="geometry">
            <mxRectangle width="156" height="56" as="alternateBounds" />
          </mxGeometry>
        </mxCell>
        <mxCell id="XFKtOcQJJ61TGkPVgmkJ-65" value="Business" style="shape=partialRectangle;html=1;whiteSpace=wrap;connectable=0;strokeColor=inherit;overflow=hidden;fillColor=none;top=0;left=0;bottom=0;right=0;pointerEvents=1;fontSize=16;textOpacity=50;" parent="XFKtOcQJJ61TGkPVgmkJ-62" vertex="1">
          <mxGeometry x="340" width="280" height="56" as="geometry">
            <mxRectangle width="280" height="56" as="alternateBounds" />
          </mxGeometry>
        </mxCell>
        <mxCell id="XFKtOcQJJ61TGkPVgmkJ-74" value="&#xa;&lt;span style=&quot;color: rgb(0, 0, 0); font-family: Helvetica; font-size: 16px; font-style: normal; font-variant-ligatures: normal; font-variant-caps: normal; font-weight: 400; letter-spacing: normal; orphans: 2; text-align: center; text-indent: 0px; text-transform: none; widows: 2; word-spacing: 0px; -webkit-text-stroke-width: 0px; white-space: normal; background-color: rgb(255, 255, 255); text-decoration-thickness: initial; text-decoration-style: initial; text-decoration-color: initial; display: inline !important; float: none;&quot;&gt;Queue&lt;/span&gt;&#xa;&#xa;" style="shape=partialRectangle;html=1;whiteSpace=wrap;connectable=0;strokeColor=inherit;overflow=hidden;fillColor=none;top=0;left=0;bottom=0;right=0;pointerEvents=1;fontSize=16;textOpacity=50;" parent="XFKtOcQJJ61TGkPVgmkJ-62" vertex="1">
          <mxGeometry x="620" width="120" height="56" as="geometry">
            <mxRectangle width="120" height="56" as="alternateBounds" />
          </mxGeometry>
        </mxCell>
        <mxCell id="XFKtOcQJJ61TGkPVgmkJ-77" value="" style="shape=partialRectangle;html=1;whiteSpace=wrap;connectable=0;strokeColor=inherit;overflow=hidden;fillColor=none;top=0;left=0;bottom=0;right=0;pointerEvents=1;fontSize=16;textOpacity=50;" parent="XFKtOcQJJ61TGkPVgmkJ-62" vertex="1">
          <mxGeometry x="740" width="170" height="56" as="geometry">
            <mxRectangle width="170" height="56" as="alternateBounds" />
          </mxGeometry>
        </mxCell>
        <mxCell id="XFKtOcQJJ61TGkPVgmkJ-79" value="" style="shape=partialRectangle;html=1;whiteSpace=wrap;connectable=0;strokeColor=inherit;overflow=hidden;fillColor=none;top=0;left=0;bottom=0;right=0;pointerEvents=1;fontSize=16;textOpacity=50;" parent="XFKtOcQJJ61TGkPVgmkJ-62" vertex="1">
          <mxGeometry x="910" width="170" height="56" as="geometry">
            <mxRectangle width="170" height="56" as="alternateBounds" />
          </mxGeometry>
        </mxCell>
        <mxCell id="XFKtOcQJJ61TGkPVgmkJ-66" value="" style="shape=tableRow;horizontal=0;startSize=0;swimlaneHead=0;swimlaneBody=0;strokeColor=inherit;top=0;left=0;bottom=0;right=0;collapsible=0;dropTarget=0;fillColor=none;points=[[0,0.5],[1,0.5]];portConstraint=eastwest;fontSize=16;" parent="XFKtOcQJJ61TGkPVgmkJ-61" vertex="1">
          <mxGeometry y="56" width="1080" height="578" as="geometry" />
        </mxCell>
        <mxCell id="XFKtOcQJJ61TGkPVgmkJ-67" value="" style="shape=partialRectangle;html=1;whiteSpace=wrap;connectable=0;strokeColor=inherit;overflow=hidden;fillColor=none;top=0;left=0;bottom=0;right=0;pointerEvents=1;fontSize=16;" parent="XFKtOcQJJ61TGkPVgmkJ-66" vertex="1">
          <mxGeometry width="184" height="578" as="geometry">
            <mxRectangle width="184" height="578" as="alternateBounds" />
          </mxGeometry>
        </mxCell>
        <mxCell id="XFKtOcQJJ61TGkPVgmkJ-68" value="" style="shape=partialRectangle;html=1;whiteSpace=wrap;connectable=0;strokeColor=inherit;overflow=hidden;fillColor=none;top=0;left=0;bottom=0;right=0;pointerEvents=1;fontSize=16;" parent="XFKtOcQJJ61TGkPVgmkJ-66" vertex="1">
          <mxGeometry x="184" width="156" height="578" as="geometry">
            <mxRectangle width="156" height="578" as="alternateBounds" />
          </mxGeometry>
        </mxCell>
        <mxCell id="XFKtOcQJJ61TGkPVgmkJ-69" value="" style="shape=partialRectangle;html=1;whiteSpace=wrap;connectable=0;strokeColor=inherit;overflow=hidden;fillColor=none;top=0;left=0;bottom=0;right=0;pointerEvents=1;fontSize=16;" parent="XFKtOcQJJ61TGkPVgmkJ-66" vertex="1">
          <mxGeometry x="340" width="280" height="578" as="geometry">
            <mxRectangle width="280" height="578" as="alternateBounds" />
          </mxGeometry>
        </mxCell>
        <mxCell id="XFKtOcQJJ61TGkPVgmkJ-75" style="shape=partialRectangle;html=1;whiteSpace=wrap;connectable=0;strokeColor=inherit;overflow=hidden;fillColor=none;top=0;left=0;bottom=0;right=0;pointerEvents=1;fontSize=16;" parent="XFKtOcQJJ61TGkPVgmkJ-66" vertex="1">
          <mxGeometry x="620" width="120" height="578" as="geometry">
            <mxRectangle width="120" height="578" as="alternateBounds" />
          </mxGeometry>
        </mxCell>
        <mxCell id="XFKtOcQJJ61TGkPVgmkJ-78" style="shape=partialRectangle;html=1;whiteSpace=wrap;connectable=0;strokeColor=inherit;overflow=hidden;fillColor=none;top=0;left=0;bottom=0;right=0;pointerEvents=1;fontSize=16;" parent="XFKtOcQJJ61TGkPVgmkJ-66" vertex="1">
          <mxGeometry x="740" width="170" height="578" as="geometry">
            <mxRectangle width="170" height="578" as="alternateBounds" />
          </mxGeometry>
        </mxCell>
        <mxCell id="XFKtOcQJJ61TGkPVgmkJ-80" style="shape=partialRectangle;html=1;whiteSpace=wrap;connectable=0;strokeColor=inherit;overflow=hidden;fillColor=none;top=0;left=0;bottom=0;right=0;pointerEvents=1;fontSize=16;" parent="XFKtOcQJJ61TGkPVgmkJ-66" vertex="1">
          <mxGeometry x="910" width="170" height="578" as="geometry">
            <mxRectangle width="170" height="578" as="alternateBounds" />
          </mxGeometry>
        </mxCell>
        <mxCell id="2" value="Client" style="whiteSpace=wrap;strokeWidth=2;fillColor=#fad9d5;strokeColor=default;" parent="1" vertex="1">
          <mxGeometry x="-272" y="374" width="58" height="33" as="geometry" />
        </mxCell>
        <mxCell id="XFKtOcQJJ61TGkPVgmkJ-15" style="edgeStyle=orthogonalEdgeStyle;rounded=0;orthogonalLoop=1;jettySize=auto;html=1;exitX=0.5;exitY=1;exitDx=0;exitDy=0;entryX=0.5;entryY=0;entryDx=0;entryDy=0;" parent="1" target="XFKtOcQJJ61TGkPVgmkJ-14" edge="1">
          <mxGeometry relative="1" as="geometry">
            <mxPoint x="-53.5" y="393" as="sourcePoint" />
          </mxGeometry>
        </mxCell>
        <mxCell id="XFKtOcQJJ61TGkPVgmkJ-16" value="Service Lookup" style="edgeLabel;html=1;align=center;verticalAlign=middle;resizable=0;points=[];" parent="XFKtOcQJJ61TGkPVgmkJ-15" vertex="1" connectable="0">
          <mxGeometry x="-0.1082" relative="1" as="geometry">
            <mxPoint as="offset" />
          </mxGeometry>
        </mxCell>
        <mxCell id="7pS44qragkz0BHSvav5G-9" style="edgeStyle=orthogonalEdgeStyle;rounded=0;orthogonalLoop=1;jettySize=auto;html=1;entryX=0.5;entryY=1;entryDx=0;entryDy=0;" edge="1" parent="1" source="5" target="XFKtOcQJJ61TGkPVgmkJ-14">
          <mxGeometry relative="1" as="geometry" />
        </mxCell>
        <mxCell id="5" value="Statistics service" style="whiteSpace=wrap;strokeWidth=2;fillColor=#ffff88;strokeColor=default;" parent="1" vertex="1">
          <mxGeometry x="124" y="436" width="81" height="33" as="geometry" />
        </mxCell>
        <mxCell id="7" value="" style="curved=1;startArrow=none;endArrow=block;exitX=1;exitY=0.5;exitDx=0;exitDy=0;entryX=0;entryY=0.5;entryDx=0;entryDy=0;" parent="1" source="2" target="XFKtOcQJJ61TGkPVgmkJ-14" edge="1">
          <mxGeometry relative="1" as="geometry">
            <Array as="points" />
            <mxPoint x="-107" y="385" as="targetPoint" />
          </mxGeometry>
        </mxCell>
        <mxCell id="XFKtOcQJJ61TGkPVgmkJ-45" value="Request" style="edgeLabel;html=1;align=center;verticalAlign=middle;resizable=0;points=[];" parent="7" vertex="1" connectable="0">
          <mxGeometry x="0.0719" y="-1" relative="1" as="geometry">
            <mxPoint as="offset" />
          </mxGeometry>
        </mxCell>
        <mxCell id="7pS44qragkz0BHSvav5G-10" style="edgeStyle=orthogonalEdgeStyle;rounded=0;orthogonalLoop=1;jettySize=auto;html=1;entryX=0.5;entryY=0;entryDx=0;entryDy=0;" edge="1" parent="1" source="XFKtOcQJJ61TGkPVgmkJ-11" target="XFKtOcQJJ61TGkPVgmkJ-14">
          <mxGeometry relative="1" as="geometry" />
        </mxCell>
        <mxCell id="7pS44qragkz0BHSvav5G-14" style="edgeStyle=orthogonalEdgeStyle;rounded=0;orthogonalLoop=1;jettySize=auto;html=1;entryX=0.5;entryY=0;entryDx=0;entryDy=0;" edge="1" parent="1" source="XFKtOcQJJ61TGkPVgmkJ-11" target="XFKtOcQJJ61TGkPVgmkJ-12">
          <mxGeometry relative="1" as="geometry" />
        </mxCell>
        <mxCell id="XFKtOcQJJ61TGkPVgmkJ-11" value="Match&#xa;service" style="whiteSpace=wrap;strokeWidth=2;fillColor=#fff2cc;strokeColor=default;" parent="1" vertex="1">
          <mxGeometry x="124" y="309" width="81" height="33" as="geometry" />
        </mxCell>
        <mxCell id="7pS44qragkz0BHSvav5G-8" style="edgeStyle=orthogonalEdgeStyle;rounded=0;orthogonalLoop=1;jettySize=auto;html=1;entryX=1;entryY=0.5;entryDx=0;entryDy=0;exitX=0.5;exitY=1;exitDx=0;exitDy=0;" edge="1" parent="1" source="XFKtOcQJJ61TGkPVgmkJ-12" target="5">
          <mxGeometry relative="1" as="geometry" />
        </mxCell>
        <mxCell id="7pS44qragkz0BHSvav5G-12" style="edgeStyle=orthogonalEdgeStyle;rounded=0;orthogonalLoop=1;jettySize=auto;html=1;entryX=0;entryY=0.5;entryDx=0;entryDy=0;" edge="1" parent="1" source="XFKtOcQJJ61TGkPVgmkJ-12" target="7pS44qragkz0BHSvav5G-11">
          <mxGeometry relative="1" as="geometry" />
        </mxCell>
        <mxCell id="XFKtOcQJJ61TGkPVgmkJ-12" value="Kafka" style="whiteSpace=wrap;strokeWidth=2;fillColor=#b0e3e6;strokeColor=default;" parent="1" vertex="1">
          <mxGeometry x="330" y="374" width="81" height="33" as="geometry" />
        </mxCell>
        <mxCell id="7pS44qragkz0BHSvav5G-16" style="edgeStyle=orthogonalEdgeStyle;rounded=0;orthogonalLoop=1;jettySize=auto;html=1;entryX=0.5;entryY=1;entryDx=0;entryDy=0;" edge="1" parent="1" source="XFKtOcQJJ61TGkPVgmkJ-14" target="XFKtOcQJJ61TGkPVgmkJ-11">
          <mxGeometry relative="1" as="geometry">
            <Array as="points">
              <mxPoint x="165" y="384" />
            </Array>
          </mxGeometry>
        </mxCell>
        <mxCell id="7pS44qragkz0BHSvav5G-17" style="edgeStyle=orthogonalEdgeStyle;rounded=0;orthogonalLoop=1;jettySize=auto;html=1;entryX=0.5;entryY=0;entryDx=0;entryDy=0;" edge="1" parent="1" source="XFKtOcQJJ61TGkPVgmkJ-14" target="5">
          <mxGeometry relative="1" as="geometry">
            <Array as="points">
              <mxPoint x="165" y="396" />
            </Array>
          </mxGeometry>
        </mxCell>
        <mxCell id="XFKtOcQJJ61TGkPVgmkJ-14" value="Service Discovery" style="whiteSpace=wrap;strokeWidth=2;fillColor=#dae8fc;strokeColor=default;" parent="1" vertex="1">
          <mxGeometry x="-107" y="374" width="107" height="33" as="geometry" />
        </mxCell>
        <mxCell id="7pS44qragkz0BHSvav5G-11" value="Zookeper" style="whiteSpace=wrap;strokeWidth=2;fillColor=#b0e3e6;strokeColor=default;" vertex="1" parent="1">
          <mxGeometry x="470" y="374" width="81" height="33" as="geometry" />
        </mxCell>
      </root>
    </mxGraphModel>
  </diagram>
</mxfile>
